# xmcd
#
# Track frame offsets:
#	150
#	15456
#	40579
#	53045
#	67458
#	80814
#	110857
#	128414
#	159953
#	180911
#	194196
#	209773
#	233541
#	245634
#	256079
#
# Disc length: 3656 seconds
#
# Revision: 1
# Processed by: cddbd v1.5.2PL0 Copyright (c) Steve Scherf et al.
# Submitted via: EZCDAudioConverter 2.1.7.1
#
DISCID=d00e460f
DTITLE=V/A - James Brown's Funky Summer
DYEAR=1900
DGENRE=
TTITLE0=James Brown - Gut Bucket
TTITLE1=Maceo and All The King's Men - Funky Women
TTITLE2=Vicki Anderson - If You Don't Give Me What I Want (I Gonna Get It Some
TTITLE2=Other Place)
TTITLE3=Lyn Collins - You Can't Love Me If You Don't Respect Me
TTITLE4=James Brown - Get On The Good Foot [Live]
TTITLE5=Fred Wesley and The Horny Horns - Between Two Sheets
TTITLE6=Bootsy Collins - What So Never The Dance
TTITLE7=James Brown - Get Up, Get Into It, Get Involved
TTITLE8=Bobby Byrd - I Know You Got Soul
TTITLE9=Tammi Terrell - What A Good Man He Is
TTITLE10=Soul Survivors - Please Please Please
TTITLE11=Albert King - Cold Sweat
TTITLE12=Roy Brown - Love Don't Love Nobody
TTITLE13=The 5 Royales - Think
TTITLE14=Braille - Antenna
EXTD=
EXTT0=
EXTT1=
EXTT2=
EXTT3=
EXTT4=
EXTT5=
EXTT6=
EXTT7=
EXTT8=
EXTT9=
EXTT10=
EXTT11=
EXTT12=
EXTT13=
EXTT14=
PLAYORDER=
